<svg xmlns="http://www.w3.org/2000/svg" width="880" height="500" viewBox="0 0 880 500">
<rect width="100%" height="100%" fill="#ffffff"/>
<text x="440" y="32" text-anchor="middle" font-family="Arial, sans-serif" font-size="20" font-weight="700" fill="#222">Global AI data center electricity scenarios</text>
<rect x="80" y="70" width="650" height="330" fill="#fbfbfb" stroke="#dddddd"/>
<line x1="80" y1="400.0" x2="730" y2="400.0" stroke="#e8e8e8"/>
<text x="72" y="404.0" text-anchor="end" font-family="Arial" font-size="11" fill="#555">0.0</text>
<line x1="80" y1="328.9" x2="730" y2="328.9" stroke="#e8e8e8"/>
<text x="72" y="332.9" text-anchor="end" font-family="Arial" font-size="11" fill="#555">400</text>
<line x1="80" y1="257.8" x2="730" y2="257.8" stroke="#e8e8e8"/>
<text x="72" y="261.8" text-anchor="end" font-family="Arial" font-size="11" fill="#555">800</text>
<line x1="80" y1="186.7" x2="730" y2="186.7" stroke="#e8e8e8"/>
<text x="72" y="190.7" text-anchor="end" font-family="Arial" font-size="11" fill="#555">1k</text>
<line x1="80" y1="115.6" x2="730" y2="115.6" stroke="#e8e8e8"/>
<text x="72" y="119.6" text-anchor="end" font-family="Arial" font-size="11" fill="#555">2k</text>
<line x1="80" y1="44.5" x2="730" y2="44.5" stroke="#e8e8e8"/>
<text x="72" y="48.5" text-anchor="end" font-family="Arial" font-size="11" fill="#555">2k</text>
<polyline points="80.0,352.2 210.0,335.8 253.3,326.1" fill="none" stroke="#2f6f73" stroke-width="2.5"/>
<circle cx="80.0" cy="352.2" r="4" fill="#2f6f73"/>
<circle cx="210.0" cy="335.8" r="4" fill="#2f6f73"/>
<circle cx="253.3" cy="326.1" r="4" fill="#2f6f73"/>
<rect x="748" y="78" width="13" height="13" fill="#2f6f73"/>
<text x="768" y="89" font-family="Arial" font-size="12" fill="#333">Historical</text>
<polyline points="253.3,326.1 513.3,231.8 730.0,187.9" fill="none" stroke="#d1893b" stroke-width="2.5"/>
<circle cx="253.3" cy="326.1" r="4" fill="#d1893b"/>
<circle cx="513.3" cy="231.8" r="4" fill="#d1893b"/>
<circle cx="730.0" cy="187.9" r="4" fill="#d1893b"/>
<rect x="748" y="102" width="13" height="13" fill="#d1893b"/>
<text x="768" y="113" font-family="Arial" font-size="12" fill="#333">Base</text>
<polyline points="253.3,326.1 513.3,175.3 730.0,94.4" fill="none" stroke="#6f5a9c" stroke-width="2.5"/>
<circle cx="253.3" cy="326.1" r="4" fill="#6f5a9c"/>
<circle cx="513.3" cy="175.3" r="4" fill="#6f5a9c"/>
<circle cx="730.0" cy="94.4" r="4" fill="#6f5a9c"/>
<rect x="748" y="126" width="13" height="13" fill="#6f5a9c"/>
<text x="768" y="137" font-family="Arial" font-size="12" fill="#333">Lift-Off</text>
<polyline points="253.3,326.1 513.3,259.2 730.0,227.2" fill="none" stroke="#b94e48" stroke-width="2.5"/>
<circle cx="253.3" cy="326.1" r="4" fill="#b94e48"/>
<circle cx="513.3" cy="259.2" r="4" fill="#b94e48"/>
<circle cx="730.0" cy="227.2" r="4" fill="#b94e48"/>
<rect x="748" y="150" width="13" height="13" fill="#b94e48"/>
<text x="768" y="161" font-family="Arial" font-size="12" fill="#333">High Efficiency</text>
<polyline points="253.3,326.1 513.3,281.1 730.0,274.3" fill="none" stroke="#5c6b73" stroke-width="2.5"/>
<circle cx="253.3" cy="326.1" r="4" fill="#5c6b73"/>
<circle cx="513.3" cy="281.1" r="4" fill="#5c6b73"/>
<circle cx="730.0" cy="274.3" r="4" fill="#5c6b73"/>
<rect x="748" y="174" width="13" height="13" fill="#5c6b73"/>
<text x="768" y="185" font-family="Arial" font-size="12" fill="#333">Headwinds</text>
<text x="80.0" y="420" text-anchor="middle" font-family="Arial" font-size="11" fill="#555">2020</text>
<text x="210.0" y="420" text-anchor="middle" font-family="Arial" font-size="11" fill="#555">2023</text>
<text x="253.3" y="420" text-anchor="middle" font-family="Arial" font-size="11" fill="#555">2024</text>
<text x="513.3" y="420" text-anchor="middle" font-family="Arial" font-size="11" fill="#555">2030</text>
<text x="730.0" y="420" text-anchor="middle" font-family="Arial" font-size="11" fill="#555">2035</text>
<text x="30" y="235" text-anchor="middle" font-family="Arial" font-size="12" fill="#333" transform="rotate(-90 30,235)">Electricity consumption (TWh)</text>
</svg>
